<svg width="24" height="24" viewBox="0 0 24 24" fill="none" xmlns="http://www.w3.org/2000/svg">
    <path
        d="M5.20611 13.7147L4.54847 18.251C4.52692 18.4006 4.53799 18.553 4.58092 18.6979C4.62386 18.8428 4.69763 18.9766 4.79718 19.0903C4.89674 19.2041 5.01972 19.2949 5.15769 19.3566C5.29566 19.4183 5.44536 19.4495 5.59651 19.4479C5.64709 19.4517 5.69789 19.4517 5.74847 19.4479L10.2865 18.7932C10.5106 18.761 10.7184 18.6572 10.8786 18.4972L20.9345 8.424L23.4157 5.94367C23.7799 5.57758 23.9843 5.08228 23.9843 4.56601C23.9843 4.04973 23.7799 3.55444 23.4157 3.18834L20.7956 0.569206C20.4302 0.204706 19.935 0 19.4188 0C18.9025 0 18.4074 0.204706 18.0419 0.569206L5.50218 13.1227C5.34211 13.2829 5.23823 13.4905 5.20611 13.7147ZM19.4279 2.16688L21.8279 4.56601L20.193 6.20035L17.7904 3.80122L19.4279 2.16688ZM7.22882 14.3616L16.31 5.28103L18.71 7.68278L9.64192 16.7581L6.82533 17.1641L7.22882 14.3616ZM22.9493 10.5481C22.6714 10.5481 22.4048 10.6585 22.2083 10.855C22.0117 11.0514 21.9013 11.3179 21.9013 11.5958V20.7889C21.9013 21.0849 21.7837 21.3687 21.5744 21.5779C21.3651 21.7871 21.0812 21.9047 20.7852 21.9047H3.21223C2.9162 21.9047 2.6323 21.7871 2.42298 21.5779C2.21366 21.3687 2.09607 21.0849 2.09607 20.7889V3.21977C2.09607 2.92386 2.21366 2.64006 2.42298 2.43082C2.6323 2.22157 2.9162 2.10402 3.21223 2.10402H12.4114C12.6893 2.10402 12.9559 1.99364 13.1524 1.79717C13.349 1.6007 13.4594 1.33422 13.4594 1.05637C13.4594 0.77851 13.349 0.512035 13.1524 0.315562C12.9559 0.119088 12.6893 0.00871059 12.4114 0.00871059H3.21223C2.3605 0.0094042 1.54386 0.347934 0.941606 0.949975C0.339347 1.55202 0.000693868 2.36836 0 3.21977V20.7889C0.000693868 21.6404 0.339347 22.4567 0.941606 23.0587C1.54386 23.6608 2.3605 23.9993 3.21223 24H20.7878C21.6395 23.9993 22.4561 23.6608 23.0584 23.0587C23.6607 22.4567 23.9993 21.6404 24 20.7889V11.5932C24 11.3153 23.8896 11.0488 23.693 10.8523C23.4965 10.6559 23.2299 10.5455 22.952 10.5455L22.9493 10.5481Z"
        fill="white" />
</svg>