<svg width="26" height="15" viewBox="0 0 26 15" fill="none" xmlns="http://www.w3.org/2000/svg">
<path d="M25.1767 5.7727C24.9797 5.53688 20.2602 0 12.887 0C5.51447 0 0.795014 5.53713 0.59753 5.77296C-0.199219 6.72532 -0.199219 8.27468 0.597782 9.2273C0.794762 9.46312 5.51421 15 12.887 15C20.26 15 24.9794 9.46287 25.1769 9.22704C25.9737 8.27468 25.9737 6.72507 25.1767 5.7727ZM17.4657 7.50013C17.4657 10.0245 15.4116 12.0783 12.8872 12.0783C10.3628 12.0783 8.30876 10.0245 8.30876 7.50013C8.30876 4.97545 10.3628 2.92166 12.8872 2.92166C15.4116 2.92166 17.4657 4.97545 17.4657 7.50013Z" fill="white"/>
</svg>
