<svg width="476" height="528" viewBox="0 0 476 528" fill="none" xmlns="http://www.w3.org/2000/svg">
<g filter="url(#filter0_d_122_591)">
<path d="M467 54H236C233.239 54 231 56.2386 231 59V201C231 203.761 233.239 206 236 206H467C469.761 206 472 203.761 472 201V59C472 56.2386 469.761 54 467 54Z" fill="white"/>
</g>
<path d="M471.203 26H126.797C126.586 26 126.383 25.8946 126.234 25.7071C126.084 25.5196 126 25.2652 126 25C126 24.7348 126.084 24.4804 126.234 24.2929C126.383 24.1054 126.586 24 126.797 24H471.203C471.414 24 471.617 24.1054 471.767 24.2929C471.916 24.4804 472 24.7348 472 25C472 25.2652 471.916 25.5196 471.767 25.7071C471.617 25.8946 471.414 26 471.203 26Z" fill="white"/>
<path d="M141.495 15.5153C145.5 15.5153 148.746 12.0421 148.746 7.75767C148.746 3.47323 145.5 0 141.495 0C137.491 0 134.245 3.47323 134.245 7.75767C134.245 12.0421 137.491 15.5153 141.495 15.5153Z" fill="#FFD000"/>
<path d="M166.543 15.5153C170.547 15.5153 173.793 12.0421 173.793 7.75767C173.793 3.47323 170.547 0 166.543 0C162.538 0 159.292 3.47323 159.292 7.75767C159.292 12.0421 162.538 15.5153 166.543 15.5153Z" fill="#1CCF99"/>
<path d="M191.59 15.5153C195.595 15.5153 198.841 12.0421 198.841 7.75767C198.841 3.47323 195.595 0 191.59 0C187.586 0 184.34 3.47323 184.34 7.75767C184.34 12.0421 187.586 15.5153 191.59 15.5153Z" fill="#FD346E"/>
<path d="M429.318 122.606H274.894C269.005 122.606 264.212 118.669 264.212 113.831C264.212 108.993 269.005 105.055 274.894 105.055H429.318C435.207 105.055 440 108.993 440 113.831C440 118.669 435.207 122.606 429.318 122.606ZM274.894 106.14C269.731 106.14 265.532 109.589 265.532 113.831C265.532 118.072 269.731 121.521 274.894 121.521H429.318C434.481 121.521 438.68 118.072 438.68 113.831C438.68 109.589 434.481 106.14 429.318 106.14H274.894Z" fill="#E2E3E4"/>
<path d="M429.318 188H274.894C269.183 188 264.542 184.187 264.542 179.496C264.542 174.804 269.183 170.991 274.894 170.991H429.318C435.029 170.991 439.67 174.804 439.67 179.496C439.67 184.187 435.029 188 429.318 188Z" fill="#8B3DFF"/>
<path d="M378.712 88.0085H272.352C266.641 88.0085 262 84.1957 262 79.5043C262 74.8128 266.641 71 272.352 71H378.712C384.423 71 389.065 74.8128 389.065 79.5043C389.065 84.1957 384.423 88.0085 378.712 88.0085Z" fill="#E2E3E4"/>
<path d="M429.318 156.927H274.894C269.005 156.927 264.212 152.989 264.212 148.151C264.212 143.314 269.005 139.376 274.894 139.376H429.318C435.207 139.376 440 143.314 440 148.151C440 152.989 435.207 156.927 429.318 156.927ZM274.894 140.461C269.731 140.461 265.532 143.91 265.532 148.151C265.532 152.393 269.731 155.842 274.894 155.842H429.318C434.481 155.842 438.68 152.393 438.68 148.151C438.68 143.91 434.481 140.461 429.318 140.461H274.894Z" fill="#E2E3E4"/>
<path d="M269.586 98.7527H310.057C311.021 98.7527 311.806 99.3927 311.806 100.19C311.806 100.982 311.021 101.627 310.057 101.627H269.586C268.622 101.627 267.836 100.987 267.836 100.19C267.836 99.3981 268.622 98.7527 269.586 98.7527Z" fill="#E2E3E4"/>
<path d="M269.586 133.887H310.057C311.021 133.887 311.806 134.527 311.806 135.319C311.806 136.111 311.021 136.756 310.057 136.756H269.586C268.622 136.756 267.836 136.116 267.836 135.324C267.836 134.533 268.622 133.887 269.586 133.887Z" fill="#E2E3E4"/>
<path d="M25.8881 130.389C34.7076 117.101 52.1562 116.482 52.1562 116.482C52.1562 116.482 69.1589 114.543 80.066 134.781C90.2323 153.645 75.908 177.093 75.908 177.093C73.077 177.274 60.8363 177.353 24.4087 172.538L22.7766 163.121L18.0943 171.709C16.1477 171.455 14.1231 171.192 12.0068 170.918C12.9645 160.925 17.4019 143.175 25.8881 130.389Z" fill="#2F2E41"/>
<path d="M5.09857 316.312L7.43497 230.322L23.342 237.768L15.6665 317.244C17.3212 318.616 18.517 320.524 19.0759 322.683C19.6348 324.842 19.5268 327.136 18.7679 329.224C18.0091 331.312 16.6401 333.082 14.8649 334.269C13.0896 335.457 11.0032 336 8.91654 335.816C6.82984 335.632 4.85456 334.731 3.28498 333.249C1.71539 331.766 0.63553 329.781 0.206312 327.588C-0.222906 325.395 0.021492 323.113 0.903076 321.081C1.78466 319.049 3.25625 317.376 5.09857 316.312Z" fill="#FFB8B8"/>
<path d="M25.8273 241.491C15.4534 242.565 8.00217 237.979 2.96143 228.726L6.44104 211.679C6.44104 206.134 8.09295 200.732 11.157 196.259C14.221 191.786 18.5377 188.474 23.4804 186.804L25.3302 186.179L25.8273 241.491Z" fill="white"/>
<path d="M102.907 228.357V243.884L116.927 220.248C115.931 218.424 115.512 216.305 115.733 214.207C115.954 212.108 116.804 210.142 118.155 208.602C119.506 207.062 121.286 206.031 123.229 205.662C125.173 205.293 127.176 205.607 128.939 206.555C130.703 207.504 132.133 209.037 133.015 210.926C133.897 212.816 134.185 214.959 133.836 217.038C133.486 219.117 132.518 221.019 131.076 222.46C129.633 223.902 127.794 224.806 125.832 225.038L106.234 262.192C105.212 264.13 103.638 265.667 101.742 266.581C99.8468 267.495 97.7279 267.738 95.6943 267.274C93.6608 266.81 91.8188 265.663 90.4368 264.001C89.0547 262.339 88.2047 260.248 88.0106 258.033L85.5856 230.361L102.907 228.357Z" fill="#FFB8B8"/>
<path d="M83.713 240.378C93.483 241.39 100.501 237.071 105.248 228.357L101.971 212.302C101.971 207.079 100.415 201.992 97.5295 197.779C94.6438 193.567 90.5784 190.447 85.9233 188.875L84.1812 188.286L83.713 240.378Z" fill="white"/>
<path d="M61.0622 518.614L71.7521 516.758L70.1486 471.761L54.3718 474.5L61.0622 518.614Z" fill="#FFB6B6"/>
<path d="M58.6612 527.26L93.5793 527.298L93.5797 526.825C93.5832 522.969 92.1548 519.269 89.6087 516.539C87.0625 513.809 83.6072 512.273 80.0027 512.269L58.6751 512.246L58.6612 527.26Z" fill="#2F2E41"/>
<path d="M9.9789 492.413L19.6478 497.632L43.0638 460.215L28.7941 452.512L9.9789 492.413Z" fill="#FFB6B6"/>
<path d="M2.78444 501.108L33.9592 517.937L34.1582 517.515C35.7818 514.072 36.0605 510.08 34.9332 506.417C33.8059 502.754 31.3648 499.72 28.1469 497.982L9.10556 487.703L2.78444 501.108Z" fill="#2F2E41"/>
<path d="M53.3538 173.21C42.8553 173.21 34.3446 164.104 34.3446 152.872C34.3446 141.639 42.8553 132.533 53.3538 132.533C63.8522 132.533 72.3629 141.639 72.3629 152.872C72.3629 164.104 63.8522 173.21 53.3538 173.21Z" fill="#FFB8B8"/>
<path d="M29.7872 132.369L47.0254 122.708L70.8309 126.661L75.7561 149.935C51.4445 153.676 34.617 155.821 28.9662 149.496L29.7872 132.369Z" fill="#2F2E41"/>
<path d="M84.0118 280.049C84.0118 280.049 98.5027 311.758 82.4471 358.682L38.0997 479.671L16.8988 466.262L38.5097 414.173L20.9308 350.416C16.8829 335.967 15.6349 320.785 17.2634 305.802C18.5303 294.59 21.4707 283.188 27.8665 277.44C42.9153 263.915 84.0118 280.049 84.0118 280.049Z" fill="#2F2E41"/>
<path d="M59.7697 404.962L75.8471 492.174L54.4356 496.493L40.9657 421.004L59.7697 404.962Z" fill="#2F2E41"/>
<path d="M39.333 183.14L63.9103 183.491L85.4241 188.786L84.1492 280.982C84.1492 280.982 45.252 292.757 28.1674 276.474L16.8985 190.182C23.2217 186.358 30.8146 184.157 39.333 183.14Z" fill="white"/>
<path d="M41.5093 132.055C34.7845 132.055 29.333 126.222 29.333 119.027C29.333 111.832 34.7845 105.999 41.5093 105.999C48.2341 105.999 53.6856 111.832 53.6856 119.027C53.6856 126.222 48.2341 132.055 41.5093 132.055Z" fill="#2F2E41"/>
<path d="M53.6857 116.02C53.6866 114.094 53.2879 112.191 52.5183 110.449C51.7487 108.707 50.6274 107.169 49.2352 105.947C47.8431 104.725 46.2148 103.849 44.4677 103.381C42.7207 102.914 40.8986 102.867 39.1326 103.245C40.6915 102.458 42.3889 102.034 44.1123 102.002C45.8357 101.97 47.5458 102.33 49.1294 103.058C50.7131 103.786 52.1342 104.865 53.2986 106.225C54.463 107.585 55.3442 109.194 55.8838 110.945C56.4234 112.697 56.6091 114.551 56.4287 116.385C56.2483 118.219 55.7058 119.991 54.8372 121.584C53.9686 123.177 52.7936 124.554 51.3901 125.625C49.9866 126.695 48.3866 127.435 46.696 127.794C48.785 126.743 50.5514 125.078 51.7891 122.993C53.0268 120.909 53.6846 118.49 53.6857 116.02Z" fill="#2F2E41"/>
<g filter="url(#filter1_d_122_591)">
<path d="M328.379 257.112H137.534C135.584 257.107 134.002 253.647 134 249.375V145.737C134 141.466 135.584 138.007 137.534 138H328.379C330.33 138.005 331.911 141.465 331.914 145.737V249.374C331.911 253.645 330.327 257.107 328.379 257.112Z" fill="white"/>
</g>
<path d="M328.379 257.112H137.534C135.584 257.107 134.002 253.647 134 249.375V145.737C134 141.466 135.584 138.007 137.534 138H328.379C330.33 138.005 331.911 141.465 331.914 145.737V249.374C331.911 253.645 330.327 257.107 328.379 257.112ZM137.534 141.094C136.363 141.094 135.415 143.174 135.413 145.737V249.374C135.413 251.937 136.363 254.014 137.534 254.016H328.379C329.55 254.016 330.499 251.937 330.5 249.374V145.737C330.5 143.174 329.55 141.097 328.379 141.095L137.534 141.094Z" fill="#E6E6E6"/>
<path d="M233.252 242.048C221.581 242.053 210.387 237.421 202.131 229.172C193.875 220.923 189.234 209.732 189.228 198.062V198.023C189.228 197.93 189.228 197.833 189.234 197.741C189.367 173.633 209.116 154 233.252 154C239.033 154 244.758 155.138 250.099 157.35C255.441 159.562 260.294 162.805 264.382 166.892C268.47 170.98 271.713 175.833 273.926 181.174C276.139 186.515 277.278 192.24 277.278 198.021C277.278 203.802 276.14 209.527 273.928 214.868C271.716 220.21 268.473 225.063 264.385 229.151C260.298 233.239 255.445 236.482 250.104 238.695C244.763 240.908 239.038 242.047 233.257 242.047H233.252V242.048ZM233.252 154.926C221.874 154.952 210.966 159.466 202.897 167.488C194.828 175.511 190.252 186.393 190.161 197.771C190.156 197.869 190.156 197.948 190.156 198.023C190.155 206.548 192.682 214.882 197.417 221.971C202.153 229.06 208.884 234.585 216.76 237.848C224.636 241.111 233.302 241.965 241.664 240.303C250.025 238.641 257.705 234.536 263.734 228.508C269.762 222.481 273.868 214.801 275.532 206.439C277.195 198.078 276.342 189.412 273.08 181.535C269.818 173.659 264.293 166.927 257.205 162.191C250.117 157.454 241.784 154.926 233.259 154.926H233.252Z" fill="#E6E6E6"/>
<path d="M213.998 197.649C219.217 197.649 223.448 193.418 223.448 188.199C223.448 182.98 219.217 178.75 213.998 178.75C208.78 178.75 204.549 182.98 204.549 188.199C204.549 193.418 208.78 197.649 213.998 197.649Z" fill="#3F3D56"/>
<path d="M243.63 217.317H197.274C197.216 217.318 197.158 217.313 197.101 217.303L219.025 179.33C219.159 179.093 219.353 178.896 219.588 178.759C219.823 178.622 220.089 178.55 220.361 178.55C220.633 178.55 220.9 178.622 221.134 178.759C221.369 178.896 221.563 179.093 221.697 179.33L236.41 204.812L237.115 206.031L243.63 217.317Z" fill="#8B3DFF"/>
<path d="M269.438 217.318H229.345L237.114 206.033L237.673 205.219L247.797 190.513C247.976 190.288 248.2 190.103 248.455 189.971C248.711 189.838 248.991 189.761 249.278 189.744C249.565 189.726 249.852 189.77 250.121 189.871C250.39 189.973 250.635 190.129 250.84 190.331C250.892 190.389 250.941 190.45 250.986 190.513L269.438 217.318Z" fill="#8B3DFF"/>
<defs>
<filter id="filter0_d_122_591" x="227" y="54" width="249" height="160" filterUnits="userSpaceOnUse" color-interpolation-filters="sRGB">
<feFlood flood-opacity="0" result="BackgroundImageFix"/>
<feColorMatrix in="SourceAlpha" type="matrix" values="0 0 0 0 0 0 0 0 0 0 0 0 0 0 0 0 0 0 127 0" result="hardAlpha"/>
<feOffset dy="4"/>
<feGaussianBlur stdDeviation="2"/>
<feComposite in2="hardAlpha" operator="out"/>
<feColorMatrix type="matrix" values="0 0 0 0 0 0 0 0 0 0 0 0 0 0 0 0 0 0 0.1 0"/>
<feBlend mode="normal" in2="BackgroundImageFix" result="effect1_dropShadow_122_591"/>
<feBlend mode="normal" in="SourceGraphic" in2="effect1_dropShadow_122_591" result="shape"/>
</filter>
<filter id="filter1_d_122_591" x="130" y="138" width="205.914" height="127.112" filterUnits="userSpaceOnUse" color-interpolation-filters="sRGB">
<feFlood flood-opacity="0" result="BackgroundImageFix"/>
<feColorMatrix in="SourceAlpha" type="matrix" values="0 0 0 0 0 0 0 0 0 0 0 0 0 0 0 0 0 0 127 0" result="hardAlpha"/>
<feOffset dy="4"/>
<feGaussianBlur stdDeviation="2"/>
<feComposite in2="hardAlpha" operator="out"/>
<feColorMatrix type="matrix" values="0 0 0 0 0 0 0 0 0 0 0 0 0 0 0 0 0 0 0.1 0"/>
<feBlend mode="normal" in2="BackgroundImageFix" result="effect1_dropShadow_122_591"/>
<feBlend mode="normal" in="SourceGraphic" in2="effect1_dropShadow_122_591" result="shape"/>
</filter>
</defs>
</svg>
