<svg width="30" height="22" viewBox="0 0 30 22" fill="none" xmlns="http://www.w3.org/2000/svg">
<path fill-rule="evenodd" clip-rule="evenodd" d="M28.125 12.8333H1.875C0.825 12.8333 0 12.0267 0 11C0 9.97333 0.825 9.16667 1.875 9.16667H28.125C29.175 9.16667 30 9.97333 30 11C30 12.0267 29.175 12.8333 28.125 12.8333ZM28.125 3.66667H1.875C0.825 3.66667 0 2.86 0 1.83333C0 0.806667 0.825 0 1.875 0H28.125C29.175 0 30 0.806667 30 1.83333C30 2.86 29.175 3.66667 28.125 3.66667ZM1.875 18.3333H28.125C29.175 18.3333 30 19.14 30 20.1667C30 21.1933 29.175 22 28.125 22H1.875C0.825 22 0 21.1933 0 20.1667C0 19.14 0.825 18.3333 1.875 18.3333Z" fill="#8B3DFF"/>
</svg>
