<svg width="594" height="243" viewBox="0 0 594 243" fill="none" xmlns="http://www.w3.org/2000/svg">
<mask id="mask0_126_661" style="mask-type:luminance" maskUnits="userSpaceOnUse" x="0" y="0" width="182" height="228">
<path d="M0 0H181.223V227.419H0V0Z" fill="white"/>
</mask>
<g mask="url(#mask0_126_661)">
<path d="M181 129.344H154.802V50.0924H114.825V129.344H49.4545L128.098 0.0125732H78.6313L0 129.344V169.293H114.825V226.862H154.802V169.293H181V129.344Z" fill="#8B3DFF"/>
</g>
<mask id="mask1_126_661" style="mask-type:luminance" maskUnits="userSpaceOnUse" x="412" y="0" width="182" height="228">
<path d="M412.098 0H593.157V227.419H412.098V0Z" fill="white"/>
</mask>
<g mask="url(#mask1_126_661)">
<path d="M593.157 129.344H566.959V50.0924H526.995V129.344H461.624L540.256 0.0125732H490.789L412.157 129.344V169.293H526.995V226.862H566.959V169.293H593.157V129.344Z" fill="#8B3DFF"/>
</g>
<mask id="mask2_126_661" style="mask-type:luminance" maskUnits="userSpaceOnUse" x="190" y="0" width="216" height="228">
<path d="M190.07 0H405.661V227.419H190.07V0Z" fill="white"/>
</mask>
<g mask="url(#mask2_126_661)">
<path d="M297.9 226.862C238.805 226.862 190.749 176.028 190.749 113.529C190.749 51.0325 238.805 0.248383 297.9 0.248383C356.993 0.248383 405.052 51.0828 405.052 113.566C405.052 176.05 356.98 226.862 297.9 226.862ZM297.9 36.516C258.985 36.516 227.326 71.1078 227.326 113.529C227.326 155.952 258.985 190.554 297.9 190.554C336.812 190.554 368.462 155.965 368.462 113.529C368.462 71.0953 336.8 36.516 297.9 36.516Z" fill="#8B3DFF"/>
</g>
<path d="M279.944 109.12C280.862 108.818 281.802 108.604 282.76 108.476C283.219 108.551 282.355 109.513 281.846 109.711C281.846 109.711 282.528 109.293 282.377 109.711C282.229 110.133 281.415 110.664 281.415 110.664L280.897 111.305C280.897 111.305 281.23 110.824 281.487 111.01C281.748 111.195 280.809 112.676 280.809 112.676L280.353 114.739L278.398 112.195L279.944 109.12Z" fill="#FB865D"/>
<path d="M330.637 154.097C328.874 153.896 327.14 153.55 325.434 153.06C325.434 153.493 325.434 153.962 325.434 154.468C327.083 154.921 328.755 155.242 330.452 155.433C335.395 156.012 345.589 159.313 349.482 165.982C349.79 165.611 350.114 165.253 350.409 164.885C346.085 158.052 335.668 154.666 330.637 154.097Z" fill="#0E133F"/>
<path d="M278.65 114.443C278.575 115.085 279.304 115.11 279.304 115.11C279.304 115.11 279.489 114.877 279.59 114.751C279.426 114.251 279.212 113.774 278.945 113.321C278.826 113.689 278.729 114.063 278.65 114.443Z" fill="#0E133F"/>
<path d="M279.589 114.751C279.91 114.346 280.243 113.937 280.576 113.516C280.271 112.862 279.913 112.236 279.502 111.639C279.278 112.208 279.093 112.789 278.945 113.283C279.216 113.748 279.429 114.239 279.589 114.751Z" fill="#0E133F"/>
<path d="M276.286 107.932L275.359 108.922C275.359 108.922 276.299 109.824 277.298 111.022C277.534 110.576 277.77 110.145 278.002 109.787C277.113 108.724 276.359 108.007 276.286 107.932Z" fill="#0E133F"/>
<path d="M285.815 131.764C282.33 125.696 281.475 117.657 281.315 115.704C281.192 115.937 281.048 116.154 280.884 116.358C280.52 116.792 280.281 117.286 280.168 117.842C280.743 122.986 282.232 127.847 284.64 132.431C288.285 138.792 297.218 146.341 299.581 148.268C299.333 147.466 299.098 146.674 298.862 145.885C295.427 142.942 288.743 136.852 285.815 131.764Z" fill="#0E133F"/>
<path d="M353.507 210.368C349.108 223.416 325.543 237.546 294.846 231.999C273.754 228.22 270.329 229.764 267.316 231.122C266.332 231.628 265.295 231.955 264.201 232.1C262.407 232.521 260.679 233.134 259.023 233.939C249.743 237.87 230.415 246.047 194.234 237.498C164.576 230.481 144.135 201.165 133.558 150.343C129.997 133.245 121.337 126.105 106.273 127.884C105.05 128.06 103.966 128.548 103.023 129.343H105.974C106.138 129.343 106.273 129.255 106.433 129.23C120.853 127.539 128.8 134.173 132.235 150.626C133.979 159.04 138.08 178.731 147.337 197.213C158.841 220.24 174.522 234.273 193.91 238.819C203.79 241.249 213.817 242.517 223.989 242.611C230.116 242.686 236.178 242.098 242.177 240.847C248.175 239.599 253.967 237.715 259.554 235.2C261.1 234.442 262.712 233.864 264.387 233.458C265.606 233.285 266.769 232.924 267.872 232.37C270.712 231.135 273.927 229.641 294.613 233.348C327.027 239.152 351.729 223.378 355.163 209.516C355.182 209.428 355.182 209.336 355.163 209.245C354.657 209.604 354.076 210 353.507 210.368Z" fill="#0E133F"/>
<path d="M89.6888 169.293C88.7461 170.513 87.6683 171.595 86.4553 172.544C85.2392 173.49 83.9289 174.273 82.5179 174.893C81.107 175.509 79.6395 175.946 78.1218 176.194C76.6009 176.446 75.0737 176.506 73.5371 176.374C65.1093 175.94 58.0672 172.667 54.199 167.391C50.7895 162.76 49.9348 156.704 51.7291 149.887C55.6445 134.717 56.2132 126.649 53.5328 122.709L52.7283 124.017C54.7426 127.822 53.9633 135.666 50.4061 149.564C48.5144 156.767 49.4289 163.215 53.1369 168.255C57.2502 173.865 64.6787 177.336 73.5025 177.792H74.7374C76.362 177.817 77.9647 177.647 79.5453 177.279C81.129 176.911 82.6436 176.358 84.0891 175.619C85.5377 174.88 86.8732 173.978 88.0988 172.912C89.3243 171.846 90.4021 170.648 91.3323 169.318L89.6888 169.293Z" fill="#0E133F"/>
<path d="M89.3671 71.0826C89.1314 70.5387 83.4971 57.6414 70.2364 53.6264C56.9787 49.6113 40.3211 55.3054 34.0552 62.9896C30.5075 67.338 30.0895 74.3431 30.3472 79.4083L31.6576 77.2483C31.6576 72.7019 32.3018 67.2782 35.0922 63.8543C40.9621 56.6416 57.4092 51.1677 69.831 54.9249C82.4727 58.7545 88.0567 71.4914 88.107 71.614C88.1321 71.7083 88.1761 71.7932 88.2389 71.8718C88.3018 71.9473 88.3772 72.007 88.4652 72.0479C88.5563 72.0919 88.6506 72.1139 88.748 72.1171C88.8454 72.1202 88.9397 72.1013 89.0308 72.0636C89.1219 72.0227 89.2005 71.9661 89.2665 71.8938C89.3325 71.8215 89.3828 71.7366 89.411 71.6423C89.4425 71.548 89.4488 71.4536 89.4393 71.3562C89.4268 71.2587 89.3953 71.1675 89.3419 71.0826H89.3671Z" fill="#0E133F"/>
<path d="M287.052 152.667C287.052 152.667 288.202 149.208 287.966 148.365C287.73 147.526 277.537 123.979 277.609 123.561C278.464 122.382 279.149 121.115 279.661 119.757C280.192 117.741 280.318 116.94 280.899 116.32C281.477 115.704 282.492 113.157 282.231 112.478C281.974 111.799 280.39 113.714 279.315 115.11C279.315 115.11 278.586 115.11 278.661 114.443C278.734 113.777 280.006 109.724 280.748 109.501C281.49 109.281 283.592 108.13 283.406 107.092C283.221 106.055 279.934 108.218 279.092 108.488C278.253 108.762 276.302 113.157 275.793 114.097C275.287 115.037 273.15 120.807 272.792 122.005C272.433 123.203 273.656 125.944 274.027 127.105C274.397 128.268 279.057 146.488 279.972 147.403C280.107 148.648 279.966 149.859 279.538 151.035C279.538 151.035 284.135 153.308 287.052 152.667Z" fill="#FB865D"/>
<path d="M254.823 141.213C254.987 140.961 255.204 140.763 255.468 140.618C255.732 140.474 256.017 140.398 256.319 140.398C256.319 140.398 255.279 139.163 252.042 139.644C252.042 139.644 252.784 138.411 255.43 138.411C254.855 137.82 254.223 137.308 253.529 136.871C252.834 136.43 252.099 136.081 251.32 135.817C250.543 135.553 249.745 135.387 248.928 135.311C248.108 135.239 247.294 135.264 246.48 135.383C246.43 135 246.496 134.638 246.685 134.299C246.87 133.962 247.14 133.714 247.495 133.554C247.495 133.554 242.823 132.727 237.845 139.732C237.644 139.543 237.478 139.329 237.346 139.087C237.217 138.848 237.126 138.591 237.075 138.32C237.025 138.053 237.019 137.779 237.053 137.509C237.091 137.235 237.17 136.978 237.289 136.729C237.289 136.729 233.927 140.436 234.285 144.068C234.643 147.699 235.102 148.133 235.102 148.133C235.102 148.133 232.566 147.501 232.431 146.18C232.431 146.18 231.516 149.887 233.99 152.195C233.421 153.365 233.308 154.575 233.653 155.83C233.653 155.83 234.037 154.358 234.693 154.135C234.693 154.135 237.163 161.338 242.417 162.461C247.668 163.586 250.499 162.153 250.499 162.153C250.499 162.153 254.6 161.474 255.317 162.797L256.319 160.474L257.617 159.942C257.617 159.942 256.319 149.504 256.319 149.428C256.319 149.356 254.823 141.213 254.823 141.213Z" fill="#0E133F"/>
<path d="M254.824 141.212C255.927 141.722 257.083 142.002 258.296 142.055C259.732 141.879 261.174 141.791 262.62 141.794C262.918 142.005 262.62 143.574 263.129 143.882C263.635 144.19 266.526 147.589 266.278 149.268C266.032 150.95 262.409 152.468 262.868 153.89C263.324 155.308 266.576 157.188 266.576 157.188C266.953 157.813 267.126 158.493 267.095 159.225C266.985 160.288 261.09 164.859 261.09 164.859L260.989 165.315L255.763 161.734C255.98 160.697 256.002 159.653 255.836 158.609C255.836 158.609 256.678 159.04 256.8 159.659C256.8 159.659 257.086 155.952 254.849 153.839C254.849 153.839 251.992 154.396 250.424 153.173C248.853 151.95 249.485 149.293 250.833 149.17L252.586 148.985C252.586 148.985 249.362 148.34 248.137 146.91C250.195 146.881 252.225 146.642 254.23 146.193C254.23 146.193 250.522 145.353 249.409 144.957C249.409 144.944 253.328 143.857 254.824 141.212Z" fill="#FB865D"/>
<path d="M305.91 164.4C305.91 164.4 306.824 138.298 307.43 131.591C308.034 124.882 308.442 110.664 314.956 108.117C321.467 105.574 349.051 87.6992 349.051 87.6992L355.6 94.3082C355.6 94.3082 339.14 110.516 334.716 112.233C330.291 113.95 325.571 118.075 324.965 120.411C324.358 122.744 325.471 148.601 325.424 150.381C325.373 152.16 325.929 175.779 325.424 178.065C324.915 180.351 322.778 187.255 315.412 188.28L309.765 188.529C309.765 188.529 303.993 170.962 305.91 164.4Z" fill="#0E133F"/>
<path d="M315.769 186.652L319.477 186.847C319.477 186.847 325.929 185.441 328.263 182.489C330.598 179.533 329.498 170.604 323.889 162.907L315.719 128.315C319.129 128.96 322.563 129.186 326.026 128.998C331.129 128.627 349.198 123.819 349.198 123.819L347.07 114.148C347.07 114.148 313.46 115.975 311.926 115.975C310.396 115.975 299.42 114.987 296.529 118.028C293.638 121.065 294.628 130.912 295.614 134.865C296.604 138.817 304.265 163.674 304.265 163.674L315.769 186.652Z" fill="#0E133F"/>
<path d="M250.015 180.153C250.015 180.153 243.762 191.072 243.762 193.742C243.988 196.515 244.651 199.178 245.751 201.734C246.505 203.797 258.11 224.366 258.776 225.133C258.892 226.991 259.156 228.827 259.568 230.641C260.24 232.713 261.089 234.71 262.113 236.634C262.679 236.634 263.235 236.568 263.782 236.436C263.782 236.436 263.782 237.263 264.215 237.373C264.907 237.389 265.595 237.335 266.277 237.213C266.277 237.213 266.277 237.621 267.119 237.621C267.958 237.621 268.998 237.165 269.095 236.732C269.648 236.989 270.198 236.989 270.751 236.732C271.38 236.276 270.949 232.446 270.949 232.446C270.949 232.446 271.455 232.779 271.531 232.012C271.603 231.248 271.531 229.469 270.975 228.988C270.418 228.503 266.091 223.737 264.932 223.193C264.932 223.193 260.988 215.779 259.307 211.717C257.629 207.651 255.502 198.967 251.894 196.483C251.894 196.483 258.195 189.629 259.109 188.306L250.015 180.153Z" fill="#FB865D"/>
<path d="M263.658 161.275C262.505 161.451 261.411 161.807 260.377 162.341C259.344 162.876 258.423 163.564 257.615 164.401C254.894 167.218 247.629 181.523 247.629 181.523C249.367 182.325 250.941 183.375 252.349 184.674C254.363 186.768 256.497 188.727 258.75 190.553C259.158 190.629 265.66 179.992 265.66 179.992C265.66 179.992 270.603 186.847 283.502 189.195C290.538 190.472 297.633 191.082 304.782 191.025C308.54 190.623 312.201 189.799 315.768 188.554C315.768 188.554 315.768 187.875 314.643 187.664C313.518 187.453 307.972 179.744 307.23 174.147C306.746 170.239 306.488 166.315 306.463 162.376C306.463 162.376 306.118 161.747 305.549 162.068C304.792 162.545 303.968 162.844 303.076 162.957C302.422 162.957 293.19 158.263 286.211 157.112C283.556 156.609 280.878 156.361 278.176 156.37C274.16 156.458 266.486 156.829 266.486 156.829C266.486 156.829 266.103 156.754 266.103 157.373C266.103 157.99 265.77 160.731 263.658 161.275Z" fill="#FFBB19"/>
<path d="M270.516 157.581C270.516 157.581 276.954 150.651 278.252 149.887C279.82 150.623 281.467 151.069 283.195 151.22C285.791 151.418 288.719 151.296 289.065 151.456C289.411 151.616 286.592 159.647 286.592 159.647C286.592 159.647 272.197 158.471 270.516 157.581Z" fill="#FFBB19"/>
<path d="M349.812 114.035H358.24C358.24 114.035 360.38 115.371 360.343 117.286C360.192 118.701 359.692 119.98 358.847 121.128L351.877 121.694L349.812 114.035Z" fill="#FB865D"/>
<path d="M367.499 98.3452C366.066 97.7667 364.099 97.8265 363.58 99.2979C361.692 104.684 357.217 112.887 357.154 113.393C357.094 113.899 357.255 114.034 357.255 114.034H357.748C357.748 114.034 359.614 115.603 359.614 117.05C359.442 118.468 359.074 119.835 358.515 121.153H357.896C357.896 121.153 357.292 121.153 358.009 121.646C358.725 122.14 363.74 122.102 365.324 122.03C366.622 119.125 366.842 111.947 366.968 110.491C367.09 109.032 367.398 101.15 367.499 98.3452Z" fill="#0E133F"/>
<path d="M369.092 99.7538C368.947 99.4111 368.734 99.1187 368.454 98.8703C368.174 98.625 367.857 98.449 367.499 98.3452C367.398 101.15 367.09 109.133 366.968 110.538C366.842 111.947 366.622 119.188 365.324 122.077H365.742C366.323 121.967 368.215 121.794 368.291 118.914C368.363 116.037 369.488 101.398 369.092 99.7538Z" fill="#DFE3FF"/>
<path d="M362.071 109.353C361.97 109.347 361.882 109.306 361.813 109.23C361.54 108.951 361.216 108.756 360.842 108.646C360.468 108.536 360.091 108.526 359.711 108.614C359.62 108.627 359.535 108.608 359.459 108.558C359.384 108.504 359.334 108.432 359.315 108.341C359.305 108.249 359.324 108.168 359.378 108.092C359.428 108.017 359.5 107.966 359.588 107.944C360.091 107.838 360.587 107.86 361.078 108.01C361.568 108.161 361.992 108.425 362.344 108.796C362.407 108.863 362.441 108.941 362.441 109.032C362.441 109.123 362.407 109.202 362.344 109.268C362.269 109.347 362.178 109.375 362.071 109.353Z" fill="#DFE3FF"/>
<path d="M362.914 107.413C362.807 107.413 362.722 107.372 362.653 107.29C362.379 107.011 362.053 106.819 361.679 106.709C361.302 106.599 360.921 106.586 360.541 106.674C360.447 106.69 360.365 106.671 360.287 106.614C360.211 106.561 360.164 106.489 360.148 106.394C360.136 106.303 360.155 106.218 360.208 106.143C360.265 106.067 360.337 106.02 360.428 106.004C360.931 105.898 361.424 105.92 361.914 106.071C362.401 106.225 362.822 106.486 363.171 106.86C363.237 106.923 363.269 107.001 363.269 107.092C363.269 107.184 363.237 107.262 363.171 107.328C363.102 107.404 363.014 107.432 362.914 107.413Z" fill="#DFE3FF"/>
<path d="M350.949 86.1051L357.649 81.0022C357.649 81.0022 360.119 80.7664 361.281 82.3101C362.02 83.5269 362.403 84.8443 362.428 86.2655L357.228 90.9471L350.949 86.1051Z" fill="#FB865D"/>
<path d="M355.498 62.9048C354.003 63.3135 352.485 64.546 352.966 66.0426C354.71 71.4789 356.117 80.6943 356.378 81.1376C356.636 81.5841 356.846 81.5967 356.846 81.5967L357.242 81.298C357.242 81.298 359.712 81.4112 360.554 82.5336C361.277 83.7661 361.811 85.0772 362.16 86.4638L361.701 86.882C361.701 86.882 361.246 87.2656 362.097 87.1901C362.952 87.1178 366.93 84.09 368.14 83.0776C367.411 79.9775 363.197 74.1325 362.456 72.8874C361.714 71.6392 357.129 65.2032 355.498 62.9048Z" fill="#0E133F"/>
<path d="M357.611 63.0652C357.287 62.8797 356.942 62.7759 356.571 62.7476C356.203 62.7193 355.845 62.7727 355.496 62.9048C357.118 65.2032 361.677 71.7367 362.453 72.922C363.233 74.1105 367.396 80.0152 368.138 83.1153L368.461 82.8198C368.842 82.3859 370.202 81.1377 368.559 78.767C366.915 76.3932 358.946 64.1153 357.611 63.0652Z" fill="#DFE3FF"/>
<path d="M357.836 74.9624C357.748 75.0252 357.654 75.0472 357.551 75.0221C357.164 74.9655 356.79 75.0064 356.422 75.1447C356.058 75.2831 355.75 75.5 355.499 75.8018C355.433 75.8679 355.351 75.8993 355.26 75.8993C355.165 75.8993 355.084 75.8679 355.018 75.8018C354.949 75.7358 354.914 75.6541 354.914 75.5597C354.914 75.4654 354.949 75.3868 355.018 75.3208C355.351 74.9309 355.756 74.6479 356.234 74.4719C356.715 74.2958 357.208 74.2486 357.711 74.3304C357.802 74.3555 357.871 74.4058 357.921 74.4844C357.972 74.5631 357.987 74.6479 357.972 74.7391C357.946 74.8272 357.902 74.8995 357.836 74.9624Z" fill="#DFE3FF"/>
<path d="M357.325 72.8998C357.246 72.9659 357.155 72.9847 357.055 72.9596C356.668 72.9061 356.294 72.947 355.93 73.0853C355.565 73.2237 355.254 73.4406 355.003 73.7393C354.94 73.8054 354.861 73.8431 354.77 73.8462C354.676 73.8494 354.594 73.8211 354.528 73.7582C354.459 73.6953 354.421 73.6167 354.418 73.5224C354.415 73.4312 354.446 73.3495 354.509 73.2803C354.839 72.8936 355.248 72.6106 355.725 72.4377C356.206 72.2647 356.7 72.2207 357.202 72.3056C357.293 72.3245 357.363 72.3716 357.413 72.4502C357.466 72.5257 357.482 72.6106 357.463 72.7018C357.438 72.7804 357.394 72.8464 357.325 72.8998Z" fill="#DFE3FF"/>
<path d="M350.1 85.2152C349.601 85.5139 349.151 85.8755 348.752 86.3031C348.29 86.7307 347.976 87.2495 347.813 87.8594C347.75 88.067 347.75 88.2776 347.813 88.4883C347.876 88.6675 347.976 88.8247 348.111 88.9567C349.525 90.3779 351.043 91.6827 352.658 92.8743C353.475 93.7547 354.449 94.3867 355.587 94.7765C355.798 94.8206 356.008 94.8206 356.215 94.7765C356.571 94.6445 356.856 94.4213 357.07 94.11L358.465 92.4656C358.72 92.2141 358.883 91.9122 358.959 91.5632C358.981 91.274 358.918 91.0036 358.773 90.7489C358.513 90.2584 358.192 89.8088 357.812 89.4032C356.652 88.2933 355.417 87.2746 354.104 86.3503C353.67 85.9981 353.218 85.6711 352.743 85.3756L352.397 85.1523C352.306 85.0895 352.218 85.0203 352.14 84.9417C351.854 84.7971 351.552 84.7499 351.238 84.8065C350.905 84.8631 350.594 84.97 350.298 85.1272L350.1 85.2152Z" fill="#6570FD"/>
<path d="M351.436 115.135C351.436 115.135 350.694 112.997 349.481 113.073C348.271 113.148 347.8 113.481 347.344 113.456C347.181 113.456 347.024 113.488 346.87 113.551C346.719 113.614 346.587 113.702 346.471 113.818C346.354 113.934 346.266 114.066 346.204 114.217C346.141 114.368 346.109 114.528 346.109 114.692C346.182 115.582 347.256 124.338 348.579 124.697C349.902 125.055 350.273 124.291 350.964 124.241C351.656 124.19 353.437 123.735 353.56 122.461C352.979 119.984 352.272 117.541 351.436 115.135Z" fill="#6570FD"/>
<path d="M256.31 142.461C256.467 142.492 256.618 142.539 256.759 142.602C256.898 142.668 257.017 142.744 257.118 142.829C257.218 142.917 257.29 143.008 257.334 143.105C257.378 143.203 257.391 143.297 257.372 143.388C257.356 143.479 257.306 143.561 257.231 143.633C257.152 143.706 257.052 143.766 256.926 143.806C256.8 143.85 256.662 143.876 256.508 143.879C256.354 143.885 256.197 143.872 256.037 143.841C255.876 143.81 255.729 143.762 255.587 143.699C255.449 143.637 255.326 143.561 255.229 143.473C255.128 143.385 255.056 143.294 255.012 143.196C254.968 143.102 254.956 143.008 254.971 142.913C254.99 142.822 255.037 142.741 255.116 142.668C255.194 142.596 255.295 142.539 255.421 142.495C255.546 142.454 255.685 142.429 255.839 142.423C255.993 142.417 256.15 142.429 256.31 142.461Z" fill="#0E133F"/>
<path d="M108.115 81.0148L105.246 76.7639C104.693 75.9465 103.999 75.2768 103.163 74.7548C102.324 74.2329 101.419 73.9028 100.441 73.7644L93.2738 72.7614L91.4449 70.0072C91.3632 69.8908 91.2626 69.7902 91.1464 69.7116C91.027 69.633 90.8981 69.5827 90.7567 69.5544C90.6185 69.5261 90.4771 69.5261 90.3388 69.5544C90.1974 69.5796 90.0686 69.633 89.9491 69.7116L87.4761 71.3906C87.3598 71.4692 87.2624 71.5698 87.1839 71.6862C87.1053 71.8056 87.0519 71.9314 87.0236 72.0729C86.9953 72.2112 86.9953 72.3496 87.0236 72.4879C87.0487 72.6262 87.1022 72.7552 87.1807 72.8746L88.9719 75.6037L87.0205 82.7441C86.7471 83.7188 86.6937 84.7092 86.8602 85.709C87.0236 86.7057 87.3913 87.6269 87.96 88.4633L90.7756 92.6387L108.115 81.0148Z" fill="#0E133F"/>
<path d="M92.3478 95.7516C94.9057 95.6667 98.7865 94.1481 102.642 91.5511C106.498 88.9571 109.364 85.9199 110.401 83.5838L111.774 82.6594L110.536 80.7918C109.141 78.7167 103.346 80.1881 97.5987 84.0554C91.8513 87.9196 88.3319 92.7018 89.7271 94.8147L90.9621 96.6791L92.3478 95.7516Z" fill="#524FD0"/>
<path d="M111.783 82.6374C111.949 82.8826 112.047 83.1719 112.075 83.502C112.106 83.8353 112.066 84.2 111.959 84.6056C111.849 85.008 111.676 85.4419 111.434 85.901C111.192 86.3632 110.887 86.8411 110.523 87.341C110.155 87.8409 109.734 88.3534 109.259 88.8722C108.782 89.391 108.26 89.9129 107.691 90.4317C107.126 90.9505 106.522 91.4598 105.884 91.9597C105.247 92.4597 104.584 92.9407 103.902 93.4029C103.217 93.8619 102.525 94.2958 101.821 94.6983C101.121 95.1039 100.42 95.4717 99.7255 95.8019C99.031 96.132 98.3523 96.4213 97.6924 96.6697C97.0325 96.9149 96.4009 97.113 95.8007 97.267C95.2005 97.418 94.6411 97.5186 94.1226 97.5689C93.6042 97.6223 93.1391 97.6223 92.7243 97.5689C92.3095 97.5186 91.9513 97.418 91.6559 97.267C91.3605 97.1161 91.128 96.9149 90.9646 96.6697C90.798 96.4244 90.7006 96.1351 90.6692 95.805C90.6409 95.4717 90.6786 95.1039 90.7886 94.7014C90.8954 94.2958 91.0714 93.8651 91.3134 93.406C91.5553 92.9438 91.857 92.4628 92.2247 91.9629C92.5892 91.463 93.0102 90.9536 93.4879 90.4348C93.9624 89.916 94.484 89.3941 95.0528 88.8753C95.6215 88.3534 96.2249 87.8441 96.8628 87.3441C97.5007 86.8442 98.1606 86.3663 98.8456 85.9041C99.5275 85.4451 100.222 85.0112 100.923 84.6087C101.627 84.2031 102.324 83.8353 103.022 83.5051C103.716 83.1719 104.395 82.8826 105.055 82.6374C105.715 82.3921 106.346 82.1909 106.947 82.04C107.547 81.8891 108.106 81.7884 108.625 81.735C109.143 81.6847 109.608 81.6847 110.023 81.735C110.438 81.7884 110.793 81.8891 111.088 82.04C111.387 82.1909 111.616 82.389 111.783 82.6374Z" fill="#B583FD"/>
<path d="M99.0258 91.2805C99.0886 91.3717 99.1106 91.4849 99.0886 91.6201C99.0698 91.7553 99.0132 91.9031 98.9158 92.0603C98.8184 92.2206 98.6896 92.3778 98.5324 92.5382C98.3722 92.6954 98.1931 92.8432 97.9951 92.9752C97.794 93.1104 97.5929 93.2205 97.3855 93.3085C97.1781 93.3965 96.9832 93.4563 96.801 93.4877C96.6156 93.5192 96.4585 93.516 96.3265 93.4846C96.1945 93.45 96.0971 93.3903 96.0343 93.2991C95.9746 93.2079 95.9526 93.0947 95.9714 92.9595C95.9903 92.8243 96.05 92.6765 96.1442 92.5162C96.2417 92.359 96.3705 92.1986 96.5307 92.0414C96.691 91.8842 96.8701 91.7364 97.0681 91.6044C97.2661 91.4692 97.4703 91.3591 97.6746 91.2711C97.882 91.1799 98.0768 91.1202 98.2622 91.0919C98.4444 91.0605 98.6016 91.0636 98.7367 91.095C98.8687 91.1296 98.9661 91.1894 99.0258 91.2805Z" fill="#0E133F"/>
<path d="M106.748 86.0735C106.811 86.1647 106.833 86.2779 106.814 86.4131C106.792 86.5483 106.736 86.696 106.638 86.8564C106.541 87.0136 106.412 87.174 106.255 87.3312C106.095 87.4884 105.916 87.6361 105.718 87.7682C105.52 87.9034 105.316 88.0134 105.108 88.1015C104.901 88.1927 104.706 88.2524 104.524 88.2807C104.338 88.3121 104.181 88.309 104.049 88.2775C103.917 88.243 103.82 88.1832 103.757 88.092C103.697 88.0009 103.675 87.8877 103.694 87.7525C103.713 87.6173 103.773 87.4695 103.87 87.3092C103.964 87.1519 104.093 86.9916 104.253 86.8344C104.414 86.6772 104.593 86.5294 104.791 86.3974C104.989 86.2622 105.193 86.1521 105.397 86.0641C105.605 85.9729 105.799 85.9163 105.985 85.8849C106.167 85.8534 106.327 85.8566 106.459 85.888C106.591 85.9226 106.689 85.9823 106.748 86.0735Z" fill="#0E133F"/>
<path d="M255.562 100.619L258.922 104.486C259.572 105.231 260.342 105.813 261.238 106.228C262.133 106.643 263.076 106.857 264.063 106.872L271.293 106.995L273.48 109.466C273.575 109.57 273.688 109.655 273.816 109.718C273.942 109.781 274.077 109.815 274.219 109.825C274.363 109.834 274.502 109.815 274.637 109.771C274.772 109.727 274.891 109.658 275.001 109.564L277.248 107.599C277.358 107.507 277.443 107.397 277.506 107.268C277.568 107.143 277.603 107.007 277.612 106.866C277.622 106.724 277.603 106.586 277.559 106.454C277.512 106.319 277.443 106.199 277.348 106.093L275.161 103.621L276.224 96.2954C276.371 95.2924 276.302 94.3083 276.013 93.3367C275.727 92.3652 275.249 91.4974 274.58 90.7365L271.281 86.9321L255.562 100.619Z" fill="#0E133F"/>
<path d="M269.39 84.0648C266.858 84.461 263.213 86.4386 259.69 89.501C256.171 92.5665 253.723 95.9119 252.981 98.358L251.746 99.4585L253.217 101.15C254.86 103.03 260.419 100.867 265.648 96.3081C270.874 91.7491 273.79 86.5487 272.146 84.659L270.629 83.0146L269.39 84.0648Z" fill="#524FD0"/>
<path d="M270.647 82.9738C270.841 83.1971 270.973 83.4706 271.043 83.7976C271.115 84.1215 271.121 84.4925 271.061 84.9075C271.005 85.3194 270.885 85.769 270.7 86.2563C270.518 86.7437 270.276 87.2593 269.974 87.8001C269.673 88.3409 269.317 88.8974 268.909 89.4728C268.5 90.0482 268.048 90.6267 267.548 91.2115C267.049 91.7994 266.511 92.378 265.939 92.9533C265.367 93.5287 264.77 94.0852 264.151 94.626C263.529 95.17 262.894 95.6824 262.247 96.1698C261.6 96.6571 260.949 97.1067 260.302 97.5218C259.652 97.9368 259.017 98.3078 258.391 98.6316C257.766 98.9586 257.163 99.2353 256.585 99.4586C256.01 99.6818 255.466 99.8516 254.96 99.9679C254.451 100.081 253.989 100.138 253.571 100.141C253.153 100.141 252.785 100.084 252.474 99.9679C252.16 99.8547 251.909 99.6849 251.714 99.4617C251.519 99.2385 251.384 98.9649 251.315 98.6379C251.246 98.3141 251.239 97.9431 251.296 97.5312C251.353 97.1162 251.475 96.6666 251.657 96.1792C251.84 95.6919 252.082 95.1794 252.383 94.6355C252.685 94.0947 253.04 93.5381 253.449 92.9628C253.857 92.3905 254.313 91.8089 254.812 91.2241C255.312 90.6361 255.846 90.0576 256.418 89.4822C256.99 88.9068 257.587 88.3503 258.209 87.8095C258.831 87.2687 259.466 86.7531 260.113 86.2658C260.761 85.7784 261.408 85.3288 262.059 84.9138C262.706 84.4987 263.344 84.1277 263.969 83.8039C264.594 83.4769 265.195 83.2034 265.773 82.977C266.351 82.7538 266.892 82.584 267.401 82.4676C267.907 82.3544 268.372 82.2979 268.79 82.2979C269.207 82.2979 269.572 82.3544 269.886 82.4676C270.197 82.5808 270.452 82.7506 270.647 82.9738Z" fill="#B583FD"/>
<path d="M265.82 87.105L261.037 81.7819C260.896 81.6059 260.723 81.4644 260.522 81.3606C260.324 81.2537 260.11 81.194 259.884 81.1751C259.661 81.1563 259.441 81.1846 259.227 81.2569C259.014 81.3292 258.822 81.4392 258.652 81.5901C258.482 81.7379 258.35 81.9171 258.253 82.1215C258.159 82.3259 258.105 82.5397 258.099 82.7661C258.09 82.9924 258.127 83.2094 258.209 83.42C258.288 83.6307 258.407 83.8162 258.564 83.9797L263.334 89.2807C263.645 89.5888 264.422 89.3908 265.091 88.7965C265.757 88.2054 266.09 87.4382 265.795 87.105H265.82Z" fill="#0E133F"/>
<path d="M259.011 93.2202L254.229 87.894C254.087 87.7211 253.914 87.5796 253.716 87.4759C253.515 87.369 253.302 87.3092 253.078 87.2904C252.852 87.2715 252.632 87.2998 252.419 87.3721C252.205 87.4413 252.013 87.5545 251.844 87.7022C251.674 87.8532 251.542 88.0324 251.448 88.2367C251.35 88.4411 251.297 88.6549 251.29 88.8813C251.281 89.1077 251.319 89.3246 251.4 89.5353C251.482 89.7459 251.598 89.9314 251.759 90.0949L256.541 95.3708C256.862 95.6789 257.629 95.4808 258.307 94.8866C258.986 94.2955 259.307 93.5409 259.011 93.195V93.2202Z" fill="#0E133F"/>
<path d="M259.619 145.168C259.619 145.353 259.582 145.533 259.513 145.705C259.44 145.878 259.337 146.029 259.205 146.161C259.073 146.293 258.922 146.397 258.749 146.47C258.576 146.539 258.397 146.576 258.209 146.576C258.023 146.576 257.844 146.539 257.671 146.47C257.498 146.397 257.344 146.293 257.212 146.161C257.08 146.029 256.98 145.878 256.908 145.705C256.835 145.533 256.801 145.353 256.801 145.168C256.801 144.979 256.835 144.8 256.908 144.627C256.98 144.454 257.08 144.303 257.212 144.171C257.344 144.039 257.498 143.938 257.671 143.866C257.844 143.794 258.023 143.759 258.209 143.759C258.397 143.759 258.576 143.794 258.749 143.866C258.922 143.938 259.073 144.039 259.205 144.171C259.337 144.303 259.44 144.454 259.513 144.627C259.582 144.8 259.619 144.979 259.619 145.168Z" fill="#FF6E48"/>
<path d="M286.939 157.546C286.892 157.559 286.848 157.559 286.801 157.546C285.051 156.927 283.247 156.581 281.39 156.509C278.6 156.355 275.815 156.427 273.035 156.716C272.94 156.732 272.855 156.71 272.78 156.65C272.705 156.594 272.664 156.515 272.654 156.421C272.645 156.329 272.67 156.248 272.727 156.175C272.786 156.106 272.859 156.062 272.95 156.05C275.775 155.745 278.603 155.675 281.44 155.839C283.382 155.896 285.265 156.26 287.087 156.939C287.169 156.98 287.229 157.043 287.26 157.128C287.291 157.216 287.285 157.301 287.247 157.386C287.178 157.502 287.075 157.556 286.939 157.546Z" fill="#F2700D"/>
<path d="M258.048 164.328C257.957 164.328 257.878 164.294 257.815 164.228C257.749 164.162 257.715 164.08 257.715 163.989C257.715 163.894 257.749 163.813 257.815 163.746C259.226 162.341 260.911 161.451 262.868 161.077C264.392 160.791 265.863 160.964 267.28 161.596C267.359 161.643 267.412 161.712 267.434 161.8C267.459 161.888 267.447 161.973 267.403 162.052C267.356 162.134 267.29 162.184 267.198 162.209C267.111 162.234 267.026 162.222 266.947 162.178C265.659 161.64 264.326 161.495 262.956 161.747C261.156 162.099 259.607 162.92 258.309 164.215C258.24 164.29 258.152 164.328 258.048 164.328Z" fill="#F2700D"/>
<path d="M265.832 180.017C265.751 180.014 265.675 179.989 265.609 179.942C265.543 179.876 265.512 179.794 265.512 179.7C265.512 179.609 265.543 179.527 265.609 179.461C267.146 177.599 268.541 175.638 269.798 173.581C270.379 172.28 270.656 170.915 270.627 169.491C270.621 169.396 270.653 169.318 270.715 169.246C270.775 169.176 270.854 169.139 270.948 169.132C271.039 169.132 271.118 169.164 271.184 169.227C271.25 169.286 271.287 169.362 271.294 169.453C271.344 171 271.042 172.475 270.392 173.877C269.116 175.99 267.693 177.996 266.115 179.892C266.046 179.989 265.952 180.03 265.832 180.017Z" fill="#F2700D"/>
<path d="M268.502 176.509C268.326 176.499 268.219 176.408 268.181 176.232C268.147 176.059 268.206 175.933 268.367 175.855C270.431 174.94 271.877 171.887 271.889 171.852C271.93 171.77 271.993 171.714 272.078 171.682C272.166 171.651 272.251 171.654 272.332 171.689C272.42 171.726 272.48 171.789 272.515 171.877C272.546 171.962 272.546 172.05 272.505 172.135C272.446 172.27 270.95 175.458 268.65 176.483L268.502 176.509Z" fill="#F2700D"/>
<path d="M307.885 182.265C307.794 182.265 307.716 182.231 307.653 182.165C301.472 175.877 302.707 164.426 302.782 163.945C302.789 163.85 302.829 163.775 302.902 163.715C302.977 163.655 303.059 163.633 303.153 163.649C303.244 163.658 303.32 163.699 303.379 163.772C303.436 163.844 303.461 163.926 303.448 164.02C303.448 164.143 302.213 175.631 308.134 181.684C308.197 181.753 308.228 181.832 308.228 181.926C308.228 182.017 308.197 182.099 308.134 182.165C308.065 182.234 307.983 182.269 307.885 182.265Z" fill="#F2700D"/>
<path d="M313.273 188.516C301.608 187.824 299.27 169.689 299.258 169.516C299.245 169.425 299.264 169.34 299.32 169.265C299.377 169.189 299.449 169.145 299.544 169.132C299.638 169.123 299.72 169.145 299.795 169.202C299.87 169.261 299.914 169.337 299.927 169.428C299.927 169.601 302.211 187.183 313.31 187.837C313.401 187.843 313.48 187.881 313.543 187.95C313.606 188.019 313.634 188.101 313.631 188.195C313.625 188.287 313.587 188.365 313.518 188.428C313.445 188.491 313.367 188.519 313.273 188.516Z" fill="#F2700D"/>
<path d="M306.464 161.659C306.376 161.662 306.297 161.634 306.234 161.574C306.168 161.514 306.134 161.439 306.131 161.351C305.427 154.063 309.009 118.446 309.157 116.877C309.166 116.783 309.21 116.704 309.286 116.648C309.361 116.588 309.446 116.566 309.54 116.582C309.634 116.588 309.713 116.626 309.769 116.701C309.829 116.773 309.851 116.858 309.839 116.953C309.839 117.324 306.131 154.013 306.797 161.238C306.809 161.335 306.784 161.417 306.721 161.489C306.662 161.565 306.583 161.602 306.489 161.609L306.464 161.659Z" fill="#6570FD"/>
<path d="M324.777 128.724C324.689 128.724 324.614 128.696 324.551 128.636C324.485 128.576 324.45 128.504 324.444 128.416C324.444 128.18 323.96 122.634 324.642 120.31C325.321 117.99 328.78 115.481 328.928 115.371C329.007 115.321 329.091 115.302 329.183 115.321C329.271 115.336 329.346 115.38 329.399 115.456C329.453 115.531 329.475 115.616 329.459 115.707C329.447 115.799 329.399 115.871 329.324 115.927C329.324 115.927 325.902 118.396 325.283 120.496C324.667 122.596 325.11 128.306 325.11 128.366C325.123 128.46 325.098 128.542 325.035 128.614C324.975 128.683 324.896 128.721 324.802 128.724H324.777Z" fill="#6570FD"/>
<path d="M308.589 126.253C305.909 126.253 303.389 123.857 303.288 123.782C303.222 123.719 303.188 123.637 303.188 123.543C303.188 123.448 303.222 123.367 303.288 123.301C303.357 123.238 303.436 123.203 303.53 123.203C303.624 123.203 303.703 123.238 303.772 123.301C303.772 123.301 306.242 125.612 308.602 125.612C308.696 125.612 308.775 125.643 308.844 125.709C308.91 125.772 308.944 125.85 308.947 125.945C308.938 126.036 308.9 126.111 308.831 126.171C308.762 126.231 308.68 126.256 308.589 126.253Z" fill="#6570FD"/>
<path d="M323.133 180.942C322.967 180.951 322.857 180.876 322.8 180.719C322.747 180.561 322.787 180.436 322.923 180.338C326.197 177.791 325.245 166.429 325.235 166.315C325.226 166.224 325.254 166.139 325.314 166.067C325.374 165.998 325.449 165.957 325.543 165.944C325.638 165.935 325.719 165.96 325.788 166.023C325.861 166.083 325.898 166.161 325.902 166.256C325.902 166.737 326.901 178.103 323.344 180.87C323.281 180.92 323.212 180.942 323.133 180.942Z" fill="#6570FD"/>
<path d="M252.536 152.726C251.936 152.704 251.427 152.478 251.005 152.047C250.814 151.874 250.694 151.66 250.647 151.406C250.603 151.151 250.638 150.909 250.757 150.679C250.877 150.45 251.053 150.283 251.288 150.173C251.524 150.063 251.766 150.038 252.017 150.095C252.112 150.11 252.187 150.158 252.24 150.236C252.297 150.312 252.316 150.397 252.303 150.491C252.291 150.585 252.247 150.657 252.171 150.714C252.096 150.771 252.011 150.79 251.92 150.777C251.788 150.746 251.662 150.764 251.543 150.834C251.427 150.903 251.351 151.003 251.313 151.132C251.291 151.318 251.354 151.466 251.499 151.579C251.81 151.899 252.19 152.057 252.636 152.047C252.727 152.031 252.809 152.053 252.885 152.104C252.957 152.157 253.004 152.23 253.02 152.321C253.029 152.412 253.01 152.497 252.954 152.572C252.9 152.648 252.825 152.695 252.734 152.714L252.536 152.726Z" fill="#EB5F3A"/>
<path d="M254.982 153.902C254.891 153.893 254.816 153.849 254.756 153.777C254.699 153.704 254.674 153.623 254.687 153.531C254.696 153.443 254.737 153.371 254.803 153.311C254.866 153.255 254.944 153.223 255.032 153.22C255.032 153.22 255.34 153.22 255.636 152.629C255.68 152.544 255.746 152.487 255.834 152.456C255.925 152.428 256.01 152.437 256.095 152.481C256.173 152.525 256.227 152.594 256.255 152.682C256.28 152.77 256.274 152.855 256.23 152.937C255.711 153.827 255.142 153.902 254.982 153.902Z" fill="#EB5F3A"/>
<path d="M258.654 153.123H258.556C258.449 153.145 258.352 153.119 258.27 153.05C258.185 152.981 258.145 152.893 258.145 152.783C258.145 152.673 258.185 152.585 258.27 152.516C258.352 152.447 258.449 152.421 258.556 152.443H258.628C259.794 152.447 260.951 152.352 262.101 152.16C262.195 152.142 262.28 152.157 262.355 152.211C262.434 152.264 262.481 152.337 262.497 152.431C262.512 152.522 262.494 152.607 262.44 152.682C262.387 152.761 262.314 152.808 262.223 152.827C261.042 153.022 259.851 153.123 258.654 153.123Z" fill="#EB5F3A"/>
<path d="M263.522 144.945C263.682 144.945 263.789 145.02 263.845 145.168C263.87 145.256 263.861 145.344 263.817 145.426C263.776 145.511 263.71 145.567 263.622 145.599C262.893 145.847 262.931 146.391 262.943 146.451C262.95 146.545 262.925 146.627 262.868 146.702C262.811 146.775 262.736 146.819 262.645 146.834C262.557 146.841 262.475 146.816 262.403 146.762C262.331 146.709 262.284 146.64 262.262 146.551C262.249 146.372 262.268 146.196 262.318 146.023C262.365 145.85 262.444 145.69 262.548 145.545C262.654 145.401 262.78 145.278 262.928 145.174C263.075 145.074 263.239 145.001 263.412 144.957L263.522 144.945Z" fill="#EB5F3A"/>
<path d="M263.915 146.957C263.846 146.954 263.78 146.935 263.717 146.897C263.642 146.844 263.598 146.768 263.582 146.677C263.569 146.586 263.588 146.501 263.645 146.425L263.83 146.168C263.89 146.108 263.962 146.073 264.044 146.067C264.129 146.061 264.204 146.083 264.273 146.13C264.342 146.18 264.389 146.243 264.408 146.325C264.43 146.407 264.421 146.488 264.386 146.564L264.188 146.822C264.119 146.913 264.028 146.96 263.915 146.957Z" fill="#F8653E"/>
<path d="M269.032 236.596C268.937 236.59 268.859 236.552 268.796 236.483C268.73 236.414 268.698 236.332 268.698 236.238C268.589 235.389 268.384 234.565 268.083 233.767C268.045 233.679 268.045 233.594 268.086 233.509C268.123 233.421 268.189 233.364 268.277 233.336C268.369 233.301 268.453 233.308 268.538 233.349C268.626 233.389 268.683 233.455 268.711 233.543C269.044 234.418 269.267 235.32 269.377 236.251C269.377 236.345 269.346 236.427 269.277 236.496C269.211 236.562 269.129 236.596 269.032 236.596Z" fill="#EB5F3A"/>
<path d="M270.753 232.32C270.671 232.323 270.599 232.298 270.536 232.248C270.473 232.195 270.436 232.129 270.42 232.05C270.222 231.034 269.81 230.116 269.185 229.296C269.132 229.23 269.106 229.154 269.11 229.069C269.113 228.984 269.141 228.912 269.198 228.849C269.254 228.786 269.323 228.749 269.408 228.736C269.493 228.727 269.568 228.742 269.641 228.789C270.354 229.717 270.813 230.761 271.014 231.915C271.036 232.006 271.02 232.094 270.97 232.173C270.92 232.254 270.847 232.305 270.753 232.32Z" fill="#EB5F3A"/>
<path d="M266.29 237.225C266.123 237.225 266.019 237.143 265.982 236.98C265.891 236.313 265.831 235.647 265.809 234.977C265.806 234.886 265.834 234.804 265.897 234.735C265.96 234.663 266.038 234.625 266.129 234.619C266.224 234.619 266.302 234.65 266.371 234.71C266.44 234.773 266.478 234.848 266.488 234.939C266.488 235.757 266.601 236.669 266.623 236.807C266.648 236.898 266.635 236.983 266.585 237.062C266.538 237.143 266.469 237.194 266.378 237.213L266.29 237.225Z" fill="#EB5F3A"/>
<path d="M263.73 236.323C263.542 236.32 263.432 236.225 263.397 236.04L263.212 234.732C263.196 234.637 263.218 234.556 263.275 234.48C263.328 234.405 263.404 234.361 263.498 234.348C263.589 234.333 263.674 234.355 263.749 234.408C263.822 234.465 263.866 234.54 263.878 234.631L264.064 235.942C264.079 236.033 264.06 236.118 264.004 236.194C263.947 236.266 263.872 236.31 263.781 236.323H263.73Z" fill="#EB5F3A"/>
<path d="M357.71 91.6642C357.657 91.6768 357.603 91.6768 357.55 91.6642C356.764 91.2177 356.073 90.6581 355.473 89.9821C355.064 89.5388 354.624 89.1269 354.153 88.7496C353.754 88.4792 353.342 88.234 352.915 88.0076C351.884 87.5643 351.061 86.8725 350.445 85.9324C350.392 85.7469 350.448 85.6149 350.621 85.5269C350.791 85.4388 350.932 85.4734 351.052 85.6212C351.598 86.4324 352.318 87.0329 353.214 87.4259C353.641 87.6586 354.053 87.9195 354.449 88.2057C354.948 88.5798 355.413 88.9917 355.844 89.4413C356.394 90.0607 357.028 90.5732 357.748 90.9851C357.83 91.0291 357.886 91.0951 357.915 91.1832C357.943 91.2712 357.937 91.3561 357.896 91.441C357.871 91.5479 357.811 91.6202 357.71 91.6642Z" fill="#A9AFFC"/>
<path d="M356.314 93.6761C356.217 93.6792 356.135 93.6446 356.066 93.5786C354.146 91.4563 351.899 89.7648 349.332 88.5008C349.247 88.4599 349.191 88.3971 349.159 88.3059C349.131 88.2178 349.134 88.133 349.175 88.0481C349.216 87.9663 349.282 87.9097 349.37 87.8783C349.458 87.8468 349.546 87.8531 349.627 87.894C352.267 89.1957 354.58 90.9344 356.563 93.1101C356.625 93.1762 356.66 93.2548 356.66 93.3491C356.66 93.4434 356.625 93.522 356.563 93.5912C356.49 93.6572 356.409 93.6855 356.314 93.6761Z" fill="#A9AFFC"/>
<path d="M350.692 123.413C350.547 123.417 350.443 123.354 350.381 123.228C348.954 120.54 347.886 117.713 347.182 114.751C347.166 114.66 347.182 114.575 347.232 114.497C347.282 114.421 347.351 114.368 347.439 114.346C347.534 114.327 347.618 114.339 347.697 114.39C347.776 114.443 347.826 114.512 347.848 114.604C348.539 117.506 349.586 120.272 350.987 122.904C351.031 122.992 351.04 123.08 351.012 123.171C350.981 123.263 350.924 123.332 350.839 123.376L350.692 123.413Z" fill="#A9AFFC"/>
<path d="M352.187 122.364C352.027 122.36 351.92 122.282 351.866 122.128C351.112 119.936 350.091 117.877 348.802 115.95C348.765 115.874 348.755 115.792 348.777 115.711C348.802 115.626 348.846 115.56 348.919 115.513C348.991 115.462 349.07 115.443 349.154 115.456C349.242 115.465 349.312 115.503 349.371 115.569C350.694 117.562 351.741 119.691 352.51 121.955C352.539 122.043 352.532 122.131 352.492 122.213C352.451 122.298 352.388 122.354 352.3 122.386L352.187 122.364Z" fill="#A9AFFC"/>
<path d="M278.649 115.135H278.586C278.495 115.119 278.42 115.072 278.367 114.997C278.313 114.918 278.297 114.833 278.316 114.739C278.401 114.283 279.193 110.318 280.305 109.416C280.305 109.416 281.54 108.686 282.084 108.303C282.147 108.237 282.225 108.202 282.32 108.202C282.411 108.202 282.489 108.237 282.555 108.303C282.618 108.372 282.653 108.451 282.653 108.545C282.653 108.639 282.618 108.718 282.555 108.787C282.021 109.205 280.786 109.897 280.736 109.935C279.994 110.529 279.256 113.642 279.033 114.877C279.011 114.962 278.964 115.028 278.891 115.078C278.816 115.129 278.737 115.148 278.649 115.135Z" fill="#EB5F3A"/>
</svg>
