<svg width="17" height="17" viewBox="0 0 17 17" fill="none" xmlns="http://www.w3.org/2000/svg">
<g id="Group">
<path id="Vector" d="M8.5 0C7.19596 0 6.13889 1.05712 6.13889 2.36111V6.13889H2.36111C1.05712 6.13889 0 7.19595 0 8.5C0 9.80404 1.05712 10.8611 2.36111 10.8611H6.13889V14.6389C6.13889 15.9429 7.19596 17 8.5 17C9.80404 17 10.8611 15.9429 10.8611 14.6389V10.8611H14.6389C15.9429 10.8611 17 9.80404 17 8.5C17 7.19595 15.9429 6.13889 14.6389 6.13889H10.8611V2.36111C10.8611 1.05712 9.80404 0 8.5 0Z" fill="white"/>
</g>
</svg>
