<svg width="22" height="26" viewBox="0 0 22 26" fill="none" xmlns="http://www.w3.org/2000/svg">
    <path
        d="M22 5.5C22 6.22934 21.7103 6.92882 21.1945 7.44454C20.6788 7.96027 19.9793 8.25 19.25 8.25H2.75C2.02065 8.25 1.32118 7.96027 0.805456 7.44454C0.289731 6.92882 0 6.22934 0 5.5C0 4.77065 0.289731 4.07118 0.805456 3.55546C1.32118 3.03973 2.02065 2.75 2.75 2.75H7.33333C7.33333 2.02065 7.62306 1.32118 8.13879 0.805456C8.65451 0.289731 9.35399 0 10.0833 0H11.9167C12.646 0 13.3455 0.289731 13.8612 0.805456C14.3769 1.32118 14.6667 2.02065 14.6667 2.75H19.25C19.9793 2.75 20.6788 3.03973 21.1945 3.55546C21.7103 4.07118 22 4.77065 22 5.5ZM17.4167 10.0833H19.25V22.9167C19.25 23.646 18.9603 24.3455 18.4445 24.8612C17.9288 25.3769 17.2293 25.6667 16.5 25.6667H5.5C4.77065 25.6667 4.07118 25.3769 3.55546 24.8612C3.03973 24.3455 2.75 23.646 2.75 22.9167V10.0833H17.4167ZM12.8333 21.0833C12.8333 21.3264 12.9299 21.5596 13.1018 21.7315C13.2737 21.9034 13.5069 22 13.75 22C13.9931 22 14.2263 21.9034 14.3982 21.7315C14.5701 21.5596 14.6667 21.3264 14.6667 21.0833V12.8333C14.6667 12.5902 14.5701 12.3571 14.3982 12.1852C14.2263 12.0132 13.9931 11.9167 13.75 11.9167C13.5069 11.9167 13.2737 12.0132 13.1018 12.1852C12.9299 12.3571 12.8333 12.5902 12.8333 12.8333V21.0833ZM7.33333 21.0833C7.33333 21.3264 7.42991 21.5596 7.60182 21.7315C7.77373 21.9034 8.00688 22 8.25 22C8.49312 22 8.72627 21.9034 8.89818 21.7315C9.07009 21.5596 9.16667 21.3264 9.16667 21.0833V12.8333C9.16667 12.5902 9.07009 12.3571 8.89818 12.1852C8.72627 12.0132 8.49312 11.9167 8.25 11.9167C8.00688 11.9167 7.77373 12.0132 7.60182 12.1852C7.42991 12.3571 7.33333 12.5902 7.33333 12.8333V21.0833Z"
        fill="white" />
</svg>