<svg width="24" height="179" viewBox="0 0 24 179" fill="none" xmlns="http://www.w3.org/2000/svg">
<path opacity="0.5" d="M21.85 29.4L1 23.22V19.35L16.78 14.97L1 10.32L0.97 6.48L21.85 0.57V4.2L4.87 8.52L21.85 13.2V17.04L4.96 21.39L21.85 25.74V29.4ZM9.67 53.3707C9.05 53.3707 8.49 53.3307 7.99 53.2507V40.6207C6.67 40.7207 5.61 41.2107 4.81 42.0907C4.01 42.9707 3.61 44.0507 3.61 45.3307C3.61 47.1707 4.38 48.4707 5.92 49.2307V52.9207C4.4 52.4207 3.15 51.5107 2.17 50.1907C1.21 48.8907 0.73 47.2707 0.73 45.3307C0.73 43.7507 1.08 42.3307 1.78 41.0707C2.5 39.8307 3.5 38.8507 4.78 38.1307C6.08 37.4307 7.58 37.0807 9.28 37.0807C10.98 37.0807 12.47 37.4207 13.75 38.1007C15.05 38.8007 16.05 39.7707 16.75 41.0107C17.45 42.2707 17.8 43.7107 17.8 45.3307C17.8 46.8907 17.46 48.2807 16.78 49.5007C16.1 50.7207 15.14 51.6707 13.9 52.3507C12.68 53.0307 11.27 53.3707 9.67 53.3707ZM10.75 49.8007C12.01 49.7807 13.02 49.3307 13.78 48.4507C14.54 47.5707 14.92 46.4807 14.92 45.1807C14.92 44.0007 14.54 42.9907 13.78 42.1507C13.04 41.3107 12.03 40.8107 10.75 40.6507V49.8007ZM23.2 66.1563H1V62.7363H23.2V66.1563ZM9.28 75.5065C10.98 75.5065 12.47 75.8465 13.75 76.5265C15.05 77.2265 16.05 78.1865 16.75 79.4065C17.45 80.6265 17.8 82.0265 17.8 83.6065C17.8 85.6065 17.32 87.2565 16.36 88.5565C15.42 89.8765 14.07 90.7665 12.31 91.2265V87.5365C13.13 87.2365 13.77 86.7565 14.23 86.0965C14.69 85.4365 14.92 84.6065 14.92 83.6065C14.92 82.2065 14.42 81.0865 13.42 80.2465C12.44 79.4265 11.06 79.0165 9.28 79.0165C7.5 79.0165 6.11 79.4265 5.11 80.2465C4.11 81.0865 3.61 82.2065 3.61 83.6065C3.61 85.5865 4.48 86.8965 6.22 87.5365V91.2265C4.54 90.7465 3.2 89.8465 2.2 88.5265C1.22 87.2065 0.73 85.5665 0.73 83.6065C0.73 82.0265 1.08 80.6265 1.78 79.4065C2.5 78.1865 3.5 77.2265 4.78 76.5265C6.08 75.8465 7.58 75.5065 9.28 75.5065ZM0.73 107.805C0.73 106.245 1.08 104.835 1.78 103.575C2.5 102.315 3.5 101.325 4.78 100.605C6.08 99.8848 7.58 99.5248 9.28 99.5248C10.96 99.5248 12.45 99.8948 13.75 100.635C15.05 101.375 16.05 102.385 16.75 103.665C17.45 104.945 17.8 106.375 17.8 107.955C17.8 109.535 17.45 110.965 16.75 112.245C16.05 113.525 15.05 114.535 13.75 115.275C12.45 116.015 10.96 116.385 9.28 116.385C7.6 116.385 6.11 116.005 4.81 115.245C3.51 114.485 2.5 113.445 1.78 112.125C1.08 110.825 0.73 109.385 0.73 107.805ZM3.7 107.805C3.7 108.685 3.91 109.505 4.33 110.265C4.75 111.045 5.38 111.675 6.22 112.155C7.06 112.635 8.08 112.875 9.28 112.875C10.48 112.875 11.49 112.645 12.31 112.185C13.15 111.725 13.78 111.115 14.2 110.355C14.62 109.595 14.83 108.775 14.83 107.895C14.83 107.015 14.62 106.195 14.2 105.435C13.78 104.695 13.15 104.105 12.31 103.665C11.49 103.225 10.48 103.005 9.28 103.005C7.5 103.005 6.12 103.455 5.14 104.355C4.18 105.275 3.7 106.425 3.7 107.805ZM17.8 145.776C17.8 147.076 17.53 148.236 16.99 149.256C16.45 150.296 15.65 151.106 14.59 151.686C13.53 152.286 12.25 152.586 10.75 152.586H1V149.196H10.24C11.72 149.196 12.85 148.826 13.63 148.086C14.43 147.346 14.83 146.336 14.83 145.056C14.83 143.776 14.43 142.756 13.63 141.996C12.85 141.256 11.72 140.886 10.24 140.886H1V137.496H10.24C11.72 137.496 12.85 137.126 13.63 136.386C14.43 135.646 14.83 134.636 14.83 133.356C14.83 132.076 14.43 131.056 13.63 130.296C12.85 129.556 11.72 129.186 10.24 129.186H1V125.766H17.53V129.186H15.64C16.32 129.746 16.85 130.456 17.23 131.316C17.61 132.176 17.8 133.096 17.8 134.076C17.8 135.396 17.52 136.576 16.96 137.616C16.4 138.656 15.59 139.456 14.53 140.016C15.53 140.516 16.32 141.296 16.9 142.356C17.5 143.416 17.8 144.556 17.8 145.776ZM9.67 178.088C9.05 178.088 8.49 178.048 7.99 177.968V165.338C6.67 165.438 5.61 165.928 4.81 166.808C4.01 167.688 3.61 168.768 3.61 170.048C3.61 171.888 4.38 173.188 5.92 173.948V177.637C4.4 177.138 3.15 176.228 2.17 174.908C1.21 173.608 0.73 171.988 0.73 170.048C0.73 168.468 1.08 167.048 1.78 165.788C2.5 164.548 3.5 163.568 4.78 162.848C6.08 162.148 7.58 161.798 9.28 161.798C10.98 161.798 12.47 162.138 13.75 162.818C15.05 163.518 16.05 164.488 16.75 165.728C17.45 166.988 17.8 168.428 17.8 170.048C17.8 171.608 17.46 172.998 16.78 174.218C16.1 175.438 15.14 176.388 13.9 177.068C12.68 177.748 11.27 178.088 9.67 178.088ZM10.75 174.518C12.01 174.498 13.02 174.048 13.78 173.168C14.54 172.288 14.92 171.198 14.92 169.898C14.92 168.718 14.54 167.708 13.78 166.868C13.04 166.028 12.03 165.528 10.75 165.368V174.518Z" fill="white"/>
</svg>
